<?xml version="1.0" encoding="UTF-8"?>
<svg id="Layer_1" data-name="Layer 1" xmlns="http://www.w3.org/2000/svg" viewBox="0 0 170.42 190.18">
  <defs>
    <style>
      .cls-1 {
        fill: none;
        stroke: #000;
        stroke-linecap: round;
        stroke-linejoin: round;
        stroke-width: 0px;
      }
    </style>
  </defs>
  <path d="m47.14,44.15c.29,0,.58-.5.87-.5-.29,0-.58.5-.87.5h0Z"/>
  <path class="cls-1" d="m38.87,91.68s-.08.02-.12.03"/>
  <path d="m2.39,17.69c7.09-4.76,14.25-10.04,22.44-12.77,1.98-.66,5.34-1.81,7.21-.33,1.3,1.02.73,2.55.16,3.85-.93,2.12-2.71,3.89-4.17,5.65-3.3,3.97-7.02,7.58-10.21,11.64-1.51,1.93-2.93,3.94-4.26,6s-1.91,4.19-1.62,6.54c.08.66.16.85.75,1.15.47.23,1.01.53,1.51.69,1.1.36,2.73-.3,3.82-.61,2.4-.69,4.54-1.85,6.78-2.93,4.83-2.32,9.5-4.95,14.2-7.51,5.31-2.89,10.68-5.67,16.18-8.19,2.59-1.19,5.23-2.46,7.9-3.45,1.32-.49,2.67-.82,4.06-1.04s1.94-.68,2.95.48l-.2-.69-.43,2.23.65-1.46c-2.9,3.98-6.69,7.09-10.32,10.38-3.94,3.58-7.92,7.11-11.8,10.76s-7.57,7.4-11.23,11.23-7.21,7.59-10.44,11.66c-1.71,2.16-3.13,4.49-4.42,6.92s-2.49,4.77-2.85,7.66c-.03.26.03.49.2.69.8.47,1.93,1.45,2.86,1.48.64.01,1.48-.37,2.09-.53l2.1-.55c1.24-.33,2.52-.58,3.74-.99,1.37-.46,2.71-1.07,4.06-1.59,5.18-2.04,10.33-4.14,15.46-6.29,10.09-4.22,20.14-8.73,30.54-12.15,2.8-.92,5.41-2.04,8.39-2.28.77-.06,1.37-.1,2.09-.38.44-.17.93-.3,1.4-.25,1.09.11,1.82.96,2.39,1.81l-.11-1.14c-.62,1.7-1.54,3.26-2.93,4.45-.78.67-1.68,1.11-2.51,1.7-1.14.8-2.23,1.72-3.33,2.57-4.51,3.48-9,6.98-13.48,10.5-8.7,6.82-17.25,13.76-25.26,21.38-1.95,1.85-4.08,3.46-5.78,5.58s-2.89,4.46-3.68,6.99c-.12.38-.21,1.25.41,1.31,1.25.13,2.74.53,3.98.34,1.36-.21,2.82-.97,4.12-1.43,2.65-.94,5.19-2.02,7.75-3.18,5.19-2.37,10.32-4.85,15.45-7.36,9.93-4.86,19.8-9.89,30.16-13.81,2.75-1.04,5.47-2.18,8.31-2.96.74-.2,1.48-.39,2.23-.55.84-.19,1.42-.53,2.19-.89,1.22-.57,2.39-.07,3.36.74l.88-2.65c-2.1,1.98-4.12,4.04-6.44,5.76l-7.21,5.36c-4.71,3.5-9.46,6.96-14.16,10.48-9.28,6.95-18.5,14.07-27.08,21.87-2.35,2.13-4.58,4.36-6.8,6.63s-4.2,4.28-5.67,7.07l1.27-1.45c-1.27,1.08-2.53,2.33-2.92,4.02-.28,1.18.12,2.89,1.25,3.58.97.59,3.04-.12,4.12-.33,1.56-.31,3.11-.7,4.62-1.18,2.92-.94,5.76-2.22,8.41-3.77,2.97-1.74,6.11-3.17,9.2-4.69,12.29-6.02,24.63-11.97,37.56-16.53,7.05-2.49,14.17-5.28,21.74-5.23l-.86-.5c.24.52.5,1.11.53,1.69,0,.2-.02.4-.06.59-.02.08.05.06-.05.1.16-.06.27-.14-.13.07-.34.17-.66.37-1.01.53-1.13.5-2.04.84-3.03,1.62-3.67,2.89-7.39,5.72-11.15,8.5-7.22,5.33-14.55,10.34-21.06,16.55-2.85,2.71-6.12,5.2-7.36,9.1-.42,1.31-1.17,4.02-.03,5.07,1.23,1.14,2.91,1.74,4.57,1.78,2.05.05,3.92-.92,5.83-1.52,2.27-.71,4.52-1.44,6.78-2.19,4.5-1.49,8.95-3.13,13.43-4.69,4.78-1.67,9.65-3.09,14.56-4.29,2.53-.61,5.12-1.03,7.58-1.86,2.33-.78,4.62-.44,6.78.69l-.41-1.31c-.46,1.2-1.11,2.32-2.07,3.19-1.14,1.02-2.59,1.66-3.83,2.53-3.43,2.41-6.86,4.81-10.35,7.12-3.22,2.14-6.18,4.58-9.31,6.83-1.57,1.13-3.01,2.11-4.04,3.81-.79,1.3-1.17,2.77-1.07,4.3.02.32.08.79.5.86,3.6.58,7.23.27,10.64-1.03,3.59-1.36,7.41-2.24,11.1-3.31s7.35-2.19,11.08-3.1c.94-.23,1.91-.41,2.85-.67.78-.21,1.5-.62,2.3-.76,1.47-.26,2.71.37,3.74,1.38l-.11-1.14c-.68,1.84-2.04,2.64-3.46,3.89-1.87,1.65-3.85,3.13-5.82,4.64-1.02.78-1.97,1.64-2.95,2.47-.87.73-1.84,1.31-2.7,2.05-1.58,1.36-2.74,3.27-2.59,5.41.03.44.09.67.5.86,1.58.73,3.16.92,4.88.77,1.95-.17,3.92-.2,5.87-.42s3.79-.45,5.71-.59c1.54-.12,2.74-.58,3.7.89l.11-1.64c-.91,1.72-2.35,3.07-3.6,4.54s-2.82,3.34-.92,4.93c.56.47,1.25.65,1.96.69,1.18.07,2.35.07,3.53.18,1,.1,1.57-.04,1.73,1.07.11.77.04,1.55.21,2.32.37,1.7,4.24-1.26,3.88-2.94-.18-.86-.06-1.75-.26-2.61-.29-1.2-.98-1.56-2.13-1.67-1.3-.13-2.65-.35-3.96-.32-.98.03-1.63-.15-2-1.14l-.62,1.85c1.73-2.49,4.07-4.45,5.49-7.17.28-.54.47-1.1.11-1.64-.81-1.24-2.09-1.63-3.52-1.46-1.94.22-3.91.3-5.85.58s-3.93.44-5.91.51-3.58.26-5.48-.62l.5.86c-.02-.36.04-.72.02-1.07-.02-.53.18-.16-.1.04.95-.67,1.85-1.34,2.75-2.1,1.86-1.57,3.82-3.01,5.71-4.54,3.51-2.83,7.34-5.51,8.95-9.89.12-.33.18-.87-.11-1.14-1.02-1-2.24-1.68-3.68-1.81-1.7-.15-3.07.54-4.65.98-3.83,1.08-7.72,1.96-11.55,3.08s-7.61,2.21-11.42,3.31c-1.8.52-3.49,1.31-5.35,1.61s-3.78.29-5.67-.02l.5.86c-.07-1.04-.07-2.01.79-2.57,1.5-.98,2.87-2.12,4.3-3.21,3.17-2.41,6.52-4.58,9.81-6.83,1.63-1.12,3.25-2.24,4.87-3.37s3.22-2.02,4.77-3.12c2.74-1.93,4.76-4.65,5.94-7.77.21-.55.12-1.04-.41-1.31-1.63-.85-3.4-1.28-5.24-1.2-2.07.1-3.96.97-5.96,1.4-4.1.87-8.16,1.88-12.18,3.07-8.23,2.42-16.23,5.6-24.4,8.23-1.17.38-2.34.75-3.51,1.11-.98.3-1.91.78-2.91,1.02-1.9.46-3.61-.21-5.03-1.48l.2.69c-.07-1.65.12-3.36,1.06-4.76.39-.57.88-1.03,1.41-1.47.97-.82,1.84-1.71,2.75-2.59,3.31-3.19,6.84-6.16,10.53-8.9,3.96-2.93,8.01-5.73,11.96-8.68,2-1.49,3.99-3,5.97-4.53.96-.74,1.91-1.48,2.86-2.23.19-.15.38-.3.57-.45.61-.46-.46.16.16-.1.58-.25,1.18-.46,1.75-.74,3.44-1.65,6.59-5.27,4.76-9.19-.18-.4-.43-.5-.86-.5-2.95-.02-5.86.31-8.74.97s-5.71,1.72-8.53,2.64c-5.71,1.86-11.34,3.94-16.89,6.24-11.34,4.69-22.39,10.21-33.37,15.69-2.77,1.38-5.36,3.06-8.26,4.18s-6.03,1.87-9.18,2.24l.69.2c-.41-.42-.91-.91-.96-1.54,0-.04-.04-.23-.09.06-.03.18.38-.31.45-.38,1-1,1.54-2.47,2.44-3.59.74-.91,1.64-1.65,2.47-2.47,1.09-1.1,2.15-2.22,3.25-3.3,4.16-4.05,8.6-7.79,13.1-11.46,9.46-7.73,19.32-14.92,29.13-22.18,2.73-2.02,5.46-4.06,8.19-6.09,2.88-2.14,5.42-4.61,8.03-7.07.46-.44,1.66-2,.88-2.65-1.88-1.58-4.04-1.73-6.25-.7-.62.29-.63.39-1.14.53-.66.19-1.35.3-2.02.47-1.26.33-2.51.71-3.74,1.14-5.04,1.77-10.01,3.82-14.9,5.98-10.21,4.52-20.17,9.62-30.21,14.53-2.81,1.37-5.69,2.62-8.54,3.92s-5.89,2.25-8.85,3.31l.84-.06-3.36-.36.41,1.31c.6-1.92,1.48-3.74,2.82-5.27.6-.68,1.27-1.3,1.98-1.85,1.14-.88,2.14-1.92,3.19-2.92,3.88-3.68,7.88-7.23,11.99-10.65,8.61-7.16,17.55-13.94,26.41-20.78,1.93-1.49,4.04-2.72,5.83-4.38,1.65-1.54,3.04-3.42,3.99-5.47.41-.88,1.14-2.06.66-3-.44-.85-1.34-1.57-2.21-1.93-.78-.32-1.68-.34-2.51-.2-.51.09-1.01.23-1.49.42l-.5.22.13-.14c-.45.06-.91.06-1.36.11-2.64.3-4.98,1.19-7.47,2.04s-5.17,1.74-7.73,2.7c-5.2,1.96-10.33,4.14-15.46,6.27-5.88,2.44-11.72,5.02-17.65,7.35l-8.56,3.37c-2.99,1.18-6.17,1.86-9.28,2.68l1.14.11-2.17-1.27.2.69c.13-1.05.36-2.07.76-3.06s1.06-1.91,1.56-2.89c.96-1.9,2.09-3.69,3.4-5.37,2.86-3.67,6.14-7.1,9.34-10.48,6.77-7.13,13.91-13.84,21.21-20.43,3.47-3.14,7.22-6.15,10.36-9.63,1.58-1.75,3.46-3.6,3.91-5.97.21-1.09.57-1.96-.4-2.76-.68-.56-1.52-.82-2.4-.73-.98.09-2,.43-2.97.63-1.17.24-2.32.55-3.44.96-2.25.84-4.45,1.92-6.65,2.89-4.55,2.01-9.01,4.22-13.42,6.52-4.89,2.55-9.67,5.3-14.56,7.85-2.33,1.22-4.69,2.42-7.06,3.56-1.15.55-2.36.98-3.58,1.32-.51.14-1.16.42-1.68.4-.65-.02-1.36-.49-1.93-.75l.47.47c-.48-2.95,1.32-5.03,2.96-7.29,1.79-2.48,3.77-4.77,5.86-7,2.26-2.42,4.45-4.92,6.55-7.48,1.93-2.35,3.87-4.63,4.91-7.53.68-1.9,1.14-4.19-.67-5.62C34.2-.03,32.4-.09,30.84.07c-3.73.38-7.35,1.97-10.7,3.57C13.59,6.78,7.63,11.01,1.62,15.04c-.71.48-1.91,1.83-1.56,2.79.39,1.05,1.77.22,2.32-.15h0Z"/>
</svg>