<?xml version="1.0" encoding="UTF-8"?>
<svg id="Layer_1" data-name="Layer 1" xmlns="http://www.w3.org/2000/svg" viewBox="0 0 189.71 117.69">
  <path d="m27.99,2.55c-2.22-5.79-11.68-.23-14.91,1.99C7.71,8.24,3.15,13.6.98,19.81c-2.36,6.77-.52,15.26,6.05,19.01,6.02,3.45,13.05,1.37,18.68-1.85,3.99-2.28,9.85-6.81,10.07-11.92.31-7.32-9.47-5.78-13.62-3.88-11.89,5.45-18.16,20.22-11.68,32.22,3.2,5.92,9.27,10.33,15.57,12.52,7.01,2.43,16.08-.83,22.04-4.69,4.08-2.65,10.45-7.45,10.87-12.88.51-6.58-8.22-6.14-12.24-4.28-12.29,5.68-16.14,21.74-8.39,32.56,8.8,12.28,26.06,9.84,34.19-1.81,2.46-3.53,4.78-11.13-1.09-12.81-4.82-1.39-10.17,2.99-12.69,6.65-8.1,11.81.83,29.11,14.19,31.63,6.81,1.29,14.02-1.88,19.4-5.82,3.97-2.91,10.33-8.32,8.92-13.99-1.63-6.57-9.05-1.68-11.67,1.15-4,4.33-6.6,10.78-5.45,16.7,1.39,7.17,8.6,13.66,15.47,15.63,6.35,1.82,14.41-.64,19.92-3.88,4.92-2.9,9.74-8.07,11.2-13.74,1.7-6.6-4.09-8.32-8.91-5.03-4.66,3.18-8.26,8.45-7.2,14.25,1.34,7.31,7.39,12.54,14.83,12.13,11.3-.62,26.8-10.56,27.04-23.18.1-5.47-4.12-6.72-8.37-3.95-3.94,2.56-6.72,7.15-7.21,11.81-.83,8.07,4.81,12.79,12.52,13.24,6.69.39,13.11-2.46,18.01-6.9s7.78-10.6,9.07-16.99c.86-4.24-.82-14.78-6.54-15.69-3.99-.64-7.31,4.59-7.42,7.94-.25,6.96,7.68,6.32,12.21,4.28,5.46-2.45,9.34-6.35,10.91-12.18.49-1.83-4.04,1.42-4.43,2.89-1.15,4.28-6.27,7.09-10.61,6.18-3.39-.71-2.22-2.6-3.53-4.57v-.97c-.26.31-.53.62-.8.92.71.77,1.79,1.16,2.53,1.98,5.12,5.66,3.66,14.15.45,20.34-4.25,8.23-18.91,11.87-25.55,4.4-2.26-2.54-2.88-5.88-2.18-9.24.35-1.69,1.74-4.78,3.94-4.51s2.5,2.67,2.46,4.42c-.18,9.38-10.91,14.76-19.02,15.24-4.13.25-7.65-1.1-10.44-4.25-1.25-1.41-2.2-3.06-2.82-4.85-1.06-3.09-.91-4.24.9-7.16.94-1.51,1.5-3.57,3.65-2.89,1.64.52,1.64,1.24,1.98,2.78.65,2.96-1.16,5.39-3.09,7.47-3.44,3.72-8.83,5.07-13.76,5.56-7.44.74-14.78-3.92-18.68-10.19-2.36-3.79-2.84-7.93-1.54-12.19.71-2.33,3.09-6.39,5.77-5.29,3.96,1.62.47,6.85-1.66,8.76-6.66,5.97-16.69,6.62-24.01,1.73-5.99-4-8.75-10.44-8.76-17.48,0-1.85.03-4.66,1.09-6.3,1.44-2.25,4.85-3.26,7.08-1.8,5.3,3.48-.85,10.5-4.71,12.19-7.47,3.28-16.17-.03-20.95-6.26s-6.84-17.63-.04-23.73c2-1.8,9.4-3.59,10.95.15.51,1.22-.62,4.54-1.37,5.5-.65.84-1.6,1.48-2.46,2.08-1.92,1.34-3.93,2.43-6.13,3.24-8,2.96-15.17,2.05-22.04-3.01-6.42-4.74-10.24-11.97-9.32-20.04.71-6.27,4.32-11.69,10.84-13.04,2.17-.45,5.33-.22,6.87,1.67,2.52,3.11-2.05,6.82-4.68,8.17-7.98,4.08-17.55,1.92-20.46-7.15-1.9-5.92.27-12.18,4.54-16.53,1.72-1.75,11.78-9.29,13.79-4.03.58,1.53,5.06-2.22,4.5-3.69h0Z"/>
</svg>